<svg width="32" height="32" viewBox="0 0 32 32" fill="none" xmlns="http://www.w3.org/2000/svg">
<path d="M7.99688 11.9984H5.3291" stroke="#903EF9" stroke-width="2" stroke-linecap="round" stroke-linejoin="round"/>
<path d="M7.99688 20.0018H5.3291" stroke="#903EF9" stroke-width="2" stroke-linecap="round" stroke-linejoin="round"/>
<path d="M5.32891 16.0001H2.66113" stroke="#903EF9" stroke-width="2" stroke-linecap="round" stroke-linejoin="round"/>
<path d="M7.54834 7.51116C10.9817 4.07776 16.1453 3.05066 20.6313 4.90881C25.1172 6.76695 28.0422 11.1444 28.0422 16C28.0422 20.8555 25.1172 25.233 20.6313 27.0912C16.1453 28.9493 10.9817 27.9222 7.54834 24.4888" stroke="url(#paint0_linear_20_1496)" stroke-width="2" stroke-linecap="round" stroke-linejoin="round"/>
<path fill-rule="evenodd" clip-rule="evenodd" d="M17.4143 11.2504L20.7494 14.5846C21.1247 14.9598 21.3357 15.4687 21.3357 15.9994C21.3357 16.53 21.125 17.039 20.7498 17.4143L17.4156 20.7494C17.0404 21.1247 16.5315 21.3357 16.0009 21.3357C15.4702 21.3357 14.9612 21.125 14.586 20.7498L11.2508 17.4156C10.8755 17.0404 10.6646 16.5315 10.6646 16.0009C10.6646 15.4702 10.8752 14.9612 11.2504 14.586L14.5846 11.2508C14.9598 10.8755 15.4687 10.6646 15.9994 10.6646C16.53 10.6646 17.039 10.8752 17.4143 11.2504Z" fill="url(#paint1_linear_20_1496)" stroke="url(#paint2_linear_20_1496)" stroke-width="2" stroke-linecap="round" stroke-linejoin="round"/>
<defs>
<linearGradient id="paint0_linear_20_1496" x1="23.0152" y1="2.35594" x2="23.0152" y2="26.3666" gradientUnits="userSpaceOnUse">
<stop stop-color="#A367EF"/>
<stop offset="1" stop-color="#811FFF"/>
</linearGradient>
<linearGradient id="paint1_linear_20_1496" x1="18.7181" y1="9.93626" x2="18.7181" y2="20.6074" gradientUnits="userSpaceOnUse">
<stop stop-color="#A367EF"/>
<stop offset="1" stop-color="#811FFF"/>
</linearGradient>
<linearGradient id="paint2_linear_20_1496" x1="18.7181" y1="9.93626" x2="18.7181" y2="20.6074" gradientUnits="userSpaceOnUse">
<stop stop-color="#A367EF"/>
<stop offset="1" stop-color="#811FFF"/>
</linearGradient>
</defs>
</svg>
