<svg width="99" height="96" viewBox="0 0 99 96" fill="none" xmlns="http://www.w3.org/2000/svg">
<path d="M86.2666 31.85C110.767 74.3167 98.5166 95.55 49.5166 95.55C0.516573 95.55 -11.8151 74.3167 12.6849 31.85C37.1849 -10.6167 61.7666 -10.6167 86.2666 31.85Z" fill="url(#paint0_linear_39_5341)"/>
<path d="M55.1723 31.0958C55.1723 29.4416 54.6708 28.247 53.6676 27.4199C52.7481 26.5928 51.4941 26.1334 49.9058 26.1334C48.5683 26.1334 47.3143 26.5928 46.2276 27.4199C45.1408 28.247 44.5557 29.4416 44.5557 30.912C44.5557 31.5553 44.7229 32.8418 44.9736 34.5879L48.4847 54.8051C48.5683 55.1727 48.6519 55.6322 48.7355 55.9998C48.819 56.4593 48.9862 56.735 49.1534 57.0106C49.4878 57.2863 49.7386 57.3782 50.1566 57.3782C50.8253 57.3782 51.2433 57.1944 51.4105 56.8269C51.5777 56.4593 51.7449 55.816 51.8285 54.8051L54.7544 35.5987C55.0887 33.8527 55.1723 32.3823 55.1723 31.0958ZM53.4168 68.0382C54.3364 67.1193 54.8379 66.0165 54.8379 64.73C54.8379 63.1677 54.3364 61.9731 53.3332 61.0541C52.3301 60.227 51.0761 59.7675 49.655 59.7675C48.4011 59.7675 47.3143 60.227 46.3112 61.146C45.308 62.065 44.89 63.1677 44.89 64.5462C44.89 66.2003 45.3916 67.4869 46.3112 68.222C47.3143 68.9572 48.5683 69.4167 50.1566 69.4167C51.4105 69.4167 52.4137 68.9572 53.4168 68.0382Z" fill="white"/>
<defs>
<linearGradient id="paint0_linear_39_5341" x1="49.4863" y1="0" x2="49.4863" y2="95.55" gradientUnits="userSpaceOnUse">
<stop stop-color="#FFC111"/>
<stop offset="1" stop-color="#FF8311"/>
</linearGradient>
</defs>
</svg>
