<svg width="64" height="64" viewBox="0 0 64 64" fill="none" xmlns="http://www.w3.org/2000/svg">
<path d="M13.3334 56H50.6667" stroke="#D3C2E9" stroke-width="1.3929" stroke-linecap="round" stroke-linejoin="round"/>
<path fill-rule="evenodd" clip-rule="evenodd" d="M22.5467 39.928C13.72 39.1307 6.96003 31.1787 8.13336 21.9147C9.15469 13.832 16.456 8 24.6054 8H40C49 8 56.264 15.432 55.992 24.4933C55.7307 33.2507 48.088 40 39.328 40H32.5014C30.4054 42.0933 27.4107 45.0907 24.8187 47.6827C23.9787 48.5227 22.5467 47.9253 22.5467 46.736V39.928Z" fill="#D3C2E9"/>
<path d="M32.472 24.1947C32.7333 24.456 32.7333 24.8773 32.472 25.1387C32.2106 25.4 31.7893 25.4 31.528 25.1387C31.2666 24.8773 31.2666 24.456 31.528 24.1947C31.7893 23.9333 32.2106 23.936 32.472 24.1947" stroke="white" stroke-width="3" stroke-linecap="round" stroke-linejoin="round"/>
<path d="M43.1387 24.1947C43.4 24.456 43.4 24.8773 43.1387 25.1387C42.8774 25.4 42.456 25.4 42.1947 25.1387C41.9334 24.8773 41.9334 24.456 42.1947 24.1947C42.456 23.9333 42.8774 23.936 43.1387 24.1947" stroke="white" stroke-width="3" stroke-linecap="round" stroke-linejoin="round"/>
<path d="M21.8053 24.1947C22.0667 24.456 22.0667 24.8773 21.8053 25.1387C21.544 25.4 21.1227 25.4 20.8613 25.1387C20.6 24.8773 20.6 24.456 20.8613 24.1947C21.1227 23.9333 21.544 23.936 21.8053 24.1947" stroke="white" stroke-width="3" stroke-linecap="round" stroke-linejoin="round"/>
</svg>
