<svg width="25" height="24" viewBox="0 0 25 24" fill="none" xmlns="http://www.w3.org/2000/svg">
<path fill-rule="evenodd" clip-rule="evenodd" d="M12.5 24C19.1274 24 24.5 18.6274 24.5 12C24.5 5.37258 19.1274 0 12.5 0C5.87258 0 0.5 5.37258 0.5 12C0.5 18.6274 5.87258 24 12.5 24ZM11.5531 18.8911C11.6262 18.9637 11.7201 19 11.8348 19H13.1339C13.2382 19 13.3269 18.9637 13.3999 18.8911C13.4834 18.8185 13.5251 18.7252 13.5251 18.6111V17.5222C14.2659 17.4289 14.9128 17.237 15.4658 16.9467C16.0188 16.6563 16.4466 16.2778 16.7492 15.8111C17.0622 15.3444 17.2188 14.8052 17.2188 14.1933C17.2188 13.5607 17.0831 13.037 16.8118 12.6222C16.5405 12.197 16.1128 11.8548 15.5285 11.5956C14.9442 11.3259 14.1773 11.103 13.2278 10.9267C12.6539 10.8022 12.2 10.683 11.8661 10.5689C11.5323 10.4548 11.2923 10.32 11.1462 10.1644C11.0106 10.0089 10.9427 9.82741 10.9427 9.62C10.9427 9.28815 11.0732 9.04444 11.334 8.88889C11.5949 8.72296 11.9496 8.64 12.3983 8.64C12.8261 8.64 13.1756 8.72815 13.4469 8.90444C13.7182 9.07037 13.8851 9.26741 13.9477 9.49555C14.0103 9.58889 14.0834 9.6563 14.1668 9.69778C14.2503 9.73926 14.3494 9.76 14.4642 9.76H16.5301C16.624 9.76 16.7023 9.72889 16.7649 9.66667C16.8275 9.59407 16.8588 9.5163 16.8588 9.43333C16.8483 9.06 16.7127 8.67111 16.4519 8.26667C16.2014 7.86222 15.831 7.49926 15.3406 7.17778C14.8502 6.8563 14.2451 6.63333 13.5251 6.50889V5.38889C13.5251 5.27481 13.4834 5.18148 13.3999 5.10889C13.3269 5.0363 13.2382 5 13.1339 5H11.8348C11.7201 5 11.6262 5.0363 11.5531 5.10889C11.4801 5.18148 11.4436 5.27481 11.4436 5.38889V6.47778C10.3897 6.62296 9.56024 6.98593 8.95507 7.56667C8.36033 8.14741 8.06297 8.85259 8.06297 9.68222C8.06297 10.3252 8.20904 10.8644 8.50119 11.3C8.79334 11.7252 9.21592 12.0726 9.76892 12.3422C10.3323 12.6015 11.0106 12.8141 11.8035 12.98C12.4191 13.1044 12.9095 13.2289 13.2747 13.3533C13.6503 13.4674 13.9216 13.6022 14.0886 13.7578C14.2555 13.903 14.339 14.0896 14.339 14.3178C14.339 14.6393 14.1825 14.8933 13.8695 15.08C13.5669 15.2667 13.113 15.36 12.5078 15.36C12.1426 15.36 11.8348 15.3185 11.5844 15.2356C11.3444 15.1422 11.1462 15.023 10.9897 14.8778C10.8436 14.7326 10.7288 14.5822 10.6454 14.4267C10.5723 14.3437 10.4993 14.2763 10.4263 14.2244C10.3532 14.1726 10.2437 14.1467 10.0976 14.1467H8.12557C8.03166 14.1467 7.94819 14.183 7.87516 14.2556C7.81255 14.3178 7.78125 14.3904 7.78125 14.4733C7.80212 14.9504 7.94819 15.4067 8.21948 15.8422C8.49076 16.2674 8.89246 16.6304 9.4246 16.9311C9.96716 17.2319 10.6402 17.4341 11.4436 17.5378V18.6111C11.4436 18.7252 11.4801 18.8185 11.5531 18.8911Z" fill="url(#paint0_linear_30_5734)"/>
<defs>
<linearGradient id="paint0_linear_30_5734" x1="12.5" y1="0" x2="12.5" y2="24" gradientUnits="userSpaceOnUse">
<stop stop-color="#7B2FD0"/>
<stop offset="1" stop-color="#414DED"/>
</linearGradient>
</defs>
</svg>
