<svg width="45" height="44" viewBox="0 0 45 44" fill="none" xmlns="http://www.w3.org/2000/svg">
<path d="M39.3785 14.6667C50.6215 34.2222 45 44 22.5139 44C0.027772 44 -5.63123 34.2222 5.61182 14.6667C16.8549 -4.88889 28.1354 -4.88889 39.3785 14.6667Z" fill="white"/>
<path d="M25.1095 14.3193C25.1095 13.5576 24.8794 13.0075 24.419 12.6266C23.997 12.2458 23.4216 12.0342 22.6927 12.0342C22.0789 12.0342 21.5035 12.2458 21.0048 12.6266C20.5061 13.0075 20.2375 13.5576 20.2375 14.2347C20.2375 14.5309 20.3143 15.1234 20.4294 15.9274L22.0406 25.2373C22.0789 25.4066 22.1173 25.6182 22.1557 25.7874C22.194 25.999 22.2707 26.126 22.3475 26.2529C22.5009 26.3799 22.616 26.4222 22.8078 26.4222C23.1147 26.4222 23.3065 26.3376 23.3832 26.1683C23.46 25.999 23.5367 25.7028 23.5751 25.2373L24.9177 16.3929C25.0712 15.5889 25.1095 14.9118 25.1095 14.3193ZM24.3039 31.331C24.7259 30.9079 24.9561 30.4001 24.9561 29.8076C24.9561 29.0882 24.7259 28.5381 24.2656 28.1149C23.8052 27.734 23.2298 27.5224 22.5776 27.5224C22.0022 27.5224 21.5035 27.734 21.0432 28.1572C20.5828 28.5804 20.391 29.0882 20.391 29.723C20.391 30.4847 20.6212 31.0771 21.0432 31.4157C21.5035 31.7542 22.0789 31.9658 22.8078 31.9658C23.3832 31.9658 23.8436 31.7542 24.3039 31.331Z" fill="url(#paint0_linear_29_2707)"/>
<defs>
<linearGradient id="paint0_linear_29_2707" x1="22.6735" y1="12.0342" x2="22.6735" y2="31.9658" gradientUnits="userSpaceOnUse">
<stop stop-color="#FFC111"/>
<stop offset="1" stop-color="#FF8311"/>
</linearGradient>
</defs>
</svg>
