<svg width="97" height="105" viewBox="0 0 97 105" fill="none" xmlns="http://www.w3.org/2000/svg">
<path d="M48.4859 85.311L19.8977 68.7798V35.7175L48.4859 19.1863L77.0742 35.7175V68.7798L48.4859 85.311Z" fill="url(#paint0_linear_39_5483)"/>
<path d="M48.4859 104.533C45.1762 104.533 41.8665 103.668 38.8926 101.938L10.3043 85.4071C4.35642 81.9952 0.710938 75.6038 0.710938 68.7798V35.7175C0.710938 28.8455 4.35642 22.5021 10.3043 19.0902L38.8926 2.55897C44.8405 -0.85299 52.1314 -0.85299 58.0793 2.55897L86.6676 19.0902C92.6155 22.5021 96.2609 28.8935 96.2609 35.7175V68.7798C96.2609 75.6518 92.6155 81.9952 86.6676 85.4071L58.0793 101.938C55.1054 103.668 51.7957 104.533 48.4859 104.533ZM39.0844 57.6789L48.4859 63.1092L57.8874 57.6789V46.8183L48.4859 41.388L39.0844 46.8183V57.6789Z" fill="url(#paint1_linear_39_5483)"/>
<path d="M53.7944 35.1791C53.7944 33.525 53.2928 32.3303 52.2897 31.5032C51.3701 30.6762 50.1162 30.2167 48.5279 30.2167C47.1903 30.2167 45.9364 30.6762 44.8497 31.5032C43.7629 32.3303 43.1777 33.525 43.1777 34.9953C43.1777 35.6386 43.3449 36.9251 43.5957 38.6712L47.1067 58.8884C47.1903 59.256 47.2739 59.7155 47.3575 60.0831C47.4411 60.5426 47.6083 60.8183 47.7755 61.094C48.1099 61.3696 48.3607 61.4615 48.7787 61.4615C49.4474 61.4615 49.8654 61.2778 50.0326 60.9102C50.1998 60.5426 50.367 59.8993 50.4506 58.8884L53.3764 39.682C53.7108 37.936 53.7944 36.4656 53.7944 35.1791ZM52.0389 72.1216C52.9584 71.2026 53.46 70.0998 53.46 68.8133C53.46 67.251 52.9584 66.0564 51.9553 65.1374C50.9521 64.3103 49.6982 63.8509 48.2771 63.8509C47.0231 63.8509 45.9364 64.3103 44.9332 65.2293C43.9301 66.1483 43.5121 67.251 43.5121 68.6295C43.5121 70.2836 44.0137 71.5702 44.9332 72.3054C45.9364 73.0405 47.1903 73.5 48.7787 73.5C50.0326 73.5 51.0357 73.0405 52.0389 72.1216Z" fill="white"/>
<defs>
<linearGradient id="paint0_linear_39_5483" x1="48.4859" y1="0" x2="48.4859" y2="104.533" gradientUnits="userSpaceOnUse">
<stop stop-color="#FF5959"/>
<stop offset="1" stop-color="#FF0000"/>
</linearGradient>
<linearGradient id="paint1_linear_39_5483" x1="48.4859" y1="0" x2="48.4859" y2="104.533" gradientUnits="userSpaceOnUse">
<stop stop-color="#FF5959"/>
<stop offset="1" stop-color="#FF0000"/>
</linearGradient>
</defs>
</svg>
