<svg width="66" height="95" viewBox="0 0 66 80" fill="none" xmlns="http://www.w3.org/2000/svg">
<g filter="url(#filter0_d_39_4178)">
<path d="M36.3073 5.71477C31.4588 11.0515 28.1688 16.0071 24.1861 21.1533C22.8008 23.0592 23.8397 25.9182 26.0908 25.9182L35.6147 25.9182L35.6147 33.5421C35.6147 41.7199 35.6147 35.8797 35.6147 41.7199L35.6147 44.984C35.6147 47.4322 37.6726 48.6557 39.231 48.6561C40.757 48.6564 42.5411 47.432 42.5411 44.984L42.5411 41.7199C42.5411 38.0479 42.5411 38.8789 42.5411 33.5421L42.5411 25.9182L51.0259 25.9182C53.277 25.9182 54.4891 22.8686 52.9307 21.1533C48.6017 16.0071 44.7922 11.0515 39.9437 5.71477C38.9047 4.76178 37.3463 4.76178 36.3073 5.71477Z" fill="url(#paint0_linear_39_4178)"/>
</g>
<g filter="url(#filter1_d_39_4178)">
<path d="M29.6927 73.6454C34.5412 68.3086 37.8312 63.353 41.8139 58.2069C43.1992 56.3009 42.1603 53.4419 39.9092 53.4419L30.3853 53.4419L30.3853 45.818C30.3853 37.6403 30.3853 43.4804 30.3853 37.6403L30.3853 34.3761C30.3853 31.928 28.3274 30.7044 26.769 30.7041C25.243 30.7038 23.4589 31.9281 23.4589 34.3761L23.4589 37.6403C23.4589 41.3123 23.4589 40.4812 23.4589 45.818L23.4589 53.4419L14.9741 53.4419C12.723 53.4419 11.5109 56.4915 13.0693 58.2069C17.3983 63.353 21.2078 68.3086 26.0563 73.6454C27.0953 74.5984 28.6537 74.5984 29.6927 73.6454Z" fill="url(#paint1_linear_39_4178)"/>
</g>
<defs>
<filter id="filter0_d_39_4178" x="11.3205" y="0.920031" width="54.5523" height="68.1361" filterUnits="userSpaceOnUse" color-interpolation-filters="sRGB">
<feFlood flood-opacity="0" result="BackgroundImageFix"/>
<feColorMatrix in="SourceAlpha" type="matrix" values="0 0 0 0 0 0 0 0 0 0 0 0 0 0 0 0 0 0 127 0" result="hardAlpha"/>
<feOffset dy="8.16"/>
<feGaussianBlur stdDeviation="6.12"/>
<feComposite in2="hardAlpha" operator="out"/>
<feColorMatrix type="matrix" values="0 0 0 0 0.364706 0 0 0 0 0.25098 0 0 0 0 0.878431 0 0 0 0.15 0"/>
<feBlend mode="normal" in2="BackgroundImageFix" result="effect1_dropShadow_39_4178"/>
<feBlend mode="normal" in="SourceGraphic" in2="effect1_dropShadow_39_4178" result="shape"/>
</filter>
<filter id="filter1_d_39_4178" x="0.127188" y="26.6241" width="54.5523" height="68.1361" filterUnits="userSpaceOnUse" color-interpolation-filters="sRGB">
<feFlood flood-opacity="0" result="BackgroundImageFix"/>
<feColorMatrix in="SourceAlpha" type="matrix" values="0 0 0 0 0 0 0 0 0 0 0 0 0 0 0 0 0 0 127 0" result="hardAlpha"/>
<feOffset dy="8.16"/>
<feGaussianBlur stdDeviation="6.12"/>
<feComposite in2="hardAlpha" operator="out"/>
<feColorMatrix type="matrix" values="0 0 0 0 0.364706 0 0 0 0 0.25098 0 0 0 0 0.878431 0 0 0 0.15 0"/>
<feBlend mode="normal" in2="BackgroundImageFix" result="effect1_dropShadow_39_4178"/>
<feBlend mode="normal" in="SourceGraphic" in2="effect1_dropShadow_39_4178" result="shape"/>
</filter>
<linearGradient id="paint0_linear_39_4178" x1="23.5605" y1="26.8281" x2="53.6329" y2="26.8281" gradientUnits="userSpaceOnUse">
<stop stop-color="white"/>
<stop offset="1" stop-color="#E8D7FF"/>
</linearGradient>
<linearGradient id="paint1_linear_39_4178" x1="42.4395" y1="52.5321" x2="12.3671" y2="52.5321" gradientUnits="userSpaceOnUse">
<stop stop-color="white"/>
<stop offset="1" stop-color="#E8D7FF"/>
</linearGradient>
</defs>
</svg>
