<svg width="505" height="152" viewBox="0 0 400 152" fill="none" xmlns="http://www.w3.org/2000/svg">
<rect opacity="0.1" x="130" y="40" width="162" height="61" rx="30" fill="url(#paint0_linear_302_7287)"/>
<rect x="124" y="58" width="158" height="25" rx="12.5" fill="url(#paint1_linear_302_7287)"/>
<g filter="url(#filter0_d_302_7287)">
<rect x="28" y="22" width="96" height="96" rx="15" fill="url(#paint2_linear_302_7287)"/>
</g>
<path d="M93.5658 66.3679C96.3169 64.8345 98.0691 62.5637 98.6667 59.4428C98.9621 57.8958 98.917 56.3467 98.7208 54.793C98.5765 53.6497 98.3104 52.5425 97.8391 51.4916C96.9777 49.5726 95.6044 48.1024 93.8274 46.9952C92.1181 45.9285 90.2442 45.2746 88.3004 44.8078C86.2641 44.3207 84.1918 44.0614 82.1059 43.9058C81.6301 43.8697 81.6256 43.8675 81.6301 43.3804C81.6459 41.6576 81.6639 39.9347 81.6797 38.2119C81.6955 36.5387 81.7068 34.8655 81.7181 33.1923C81.7203 32.7165 81.7181 32.7165 81.2174 32.6984C80.0922 32.6601 78.9647 32.6173 77.8372 32.5834C76.8608 32.5519 75.8866 32.5293 74.8628 32.5C74.8741 34.4055 74.8876 36.2433 74.8989 38.0811C74.9102 39.7386 74.9125 41.3937 74.9373 43.0512C74.9418 43.3263 74.8583 43.3939 74.6013 43.3872C74.2202 43.3759 73.8391 43.4007 73.458 43.4097C72.2335 43.4413 71.0113 43.554 69.7846 43.545C69.4396 43.5428 69.426 43.5292 69.417 43.1887C69.4148 43.1233 69.426 43.0557 69.426 42.9903C69.4734 39.6935 69.5185 36.3966 69.5636 33.0998C69.5704 32.6173 69.5726 32.6195 69.063 32.6173C67.2748 32.606 65.4843 32.5857 63.6961 32.5879C62.9023 32.5902 62.9993 32.4053 62.9902 33.296C62.9542 36.6086 62.9339 39.9235 62.9068 43.2361C62.9023 43.7434 62.9 43.7525 62.3927 43.7683C61.069 43.8066 59.743 43.8607 58.4194 43.8652C56.0178 43.872 53.6139 43.8472 51.2124 43.8359C50.599 43.8336 49.9856 43.8359 49.3745 43.8246C49.1626 43.8201 49.0791 43.8923 49.0882 44.111C49.0994 44.4245 49.0836 44.7402 49.0791 45.0559C49.0543 46.9771 49.034 48.9006 49.0002 50.8219C48.9957 51.0677 49.0633 51.1421 49.3046 51.1376C50.0014 51.1241 50.696 51.1286 51.3928 51.1286C52.4526 51.1286 53.5125 51.1038 54.5723 51.1331C56.5319 51.1872 57.7338 52.9912 57.7383 54.5224C57.7496 59.0775 57.797 63.6326 57.8285 68.1899C57.8646 73.6245 57.8985 79.0568 57.9413 84.4914C57.9458 85.0145 57.7902 85.47 57.479 85.8782C56.9626 86.5569 56.2343 86.7982 55.427 86.8118C53.9364 86.8366 52.4436 86.8275 50.953 86.8343C50.475 86.8366 50.4795 86.8366 50.3983 87.3146C50.0623 89.3103 49.7173 91.3037 49.3926 93.2994C49.3069 93.8293 49.1738 94.357 49.1626 94.9365C49.7421 94.9501 50.2856 94.9658 50.829 94.9794C53.4471 95.038 56.0629 95.1057 58.6809 95.153C59.9054 95.1756 61.1321 95.0718 62.3588 95.1124C62.758 95.126 62.758 95.1305 62.758 95.5386C62.7535 96.93 62.7467 98.3213 62.7422 99.7126C62.7332 101.832 62.7264 103.954 62.7196 106.074C62.7174 106.527 62.7219 106.53 63.1819 106.545C64.3072 106.584 65.4347 106.62 66.5599 106.654C67.4529 106.681 68.3481 106.69 69.2411 106.739C69.532 106.755 69.5906 106.645 69.5771 106.408C69.5749 106.358 69.5749 106.309 69.5749 106.259C69.6064 102.829 69.6357 99.3992 69.6673 95.9716C69.6718 95.5837 69.6876 95.5589 70.089 95.5251C70.6167 95.4822 71.1466 95.4439 71.6765 95.4259C72.8333 95.3853 73.9902 95.3717 75.1605 95.4146C75.1718 95.5183 75.1853 95.5995 75.1853 95.6807C75.1808 96.4767 75.1718 97.2705 75.165 98.0665C75.1425 100.75 75.1199 103.433 75.0996 106.119C75.0974 106.557 75.1041 106.561 75.51 106.586C77.5283 106.717 79.5442 106.847 81.5625 106.976C81.9954 107.003 81.9977 106.999 82.009 106.577C82.0789 103.745 82.1443 100.912 82.2119 98.08C82.2299 97.3336 82.2525 96.5894 82.266 95.843C82.2683 95.6446 82.3269 95.5431 82.5456 95.5296C82.9245 95.507 83.3033 95.4574 83.6822 95.4191C85.3148 95.259 86.9429 95.0651 88.5507 94.7381C89.6218 94.5194 90.6907 94.2961 91.7415 93.9804C93.2073 93.5407 94.6279 93.004 95.9674 92.2666C98.8764 90.6633 100.931 88.3339 101.997 85.1588C102.448 83.8126 102.701 82.4325 102.836 81.0254C103.019 79.1222 103.048 77.2212 102.665 75.336C102.022 72.1903 100.317 69.8248 97.4805 68.2959C96.3508 67.6871 95.1534 67.2496 93.9131 66.9271C93.647 66.8572 93.3809 66.7851 93.0945 66.7084C93.1487 66.634 93.1599 66.6024 93.1825 66.5889C93.3043 66.51 93.4351 66.4401 93.5658 66.3679ZM89.367 80.6173C89.3219 82.7708 88.3568 84.4237 86.5753 85.6098C85.3441 86.4284 83.9798 86.9245 82.6967 87.2086C80.4688 87.7927 78.3401 87.9596 76.2046 88.0633C74.351 88.1535 72.4973 88.1197 70.6437 88.1535C70.222 88.1602 70.2198 88.1557 70.2153 87.7138C70.1769 83.6728 70.1409 79.6341 70.1025 75.5931C70.0958 74.9144 70.0845 74.2356 70.0822 73.5568C70.08 73.196 70.098 73.178 70.4273 73.1735C72.9754 73.1307 75.5258 73.0066 78.074 73.16C80.1463 73.284 82.2006 73.5253 84.185 74.1837C84.9427 74.4363 85.6666 74.7565 86.3543 75.1692C88.4177 76.4004 89.4166 78.2224 89.367 80.6173ZM83.6912 64.2347C82.602 64.936 81.4181 65.3825 80.4372 65.5989C78.0943 66.192 75.9791 66.3228 73.8571 66.3521C72.813 66.3656 71.769 66.3566 70.7272 66.3499C70.301 66.3476 70.2965 66.3386 70.2942 65.9124C70.2784 63.2131 70.2649 60.5117 70.2514 57.8124C70.2423 56.1888 70.2288 54.5652 70.2198 52.9416C70.2175 52.5695 70.222 52.5583 70.5558 52.5673C72.5424 52.6169 74.5336 52.5537 76.518 52.7026C78.1258 52.8221 79.7179 53.0296 81.2603 53.5234C82.6043 53.9541 83.8355 54.5765 84.8119 55.6341C86.8144 57.8079 87.0015 62.1014 83.6912 64.2347Z" fill="white"/>
<rect x="292" y="22" width="96" height="96" rx="30" fill="url(#paint3_linear_302_7287)"/>
<path d="M364 60.6667H324C321.055 60.6667 318.667 58.2789 318.667 55.3333C318.667 52.3878 321.055 50 324 50H358.667C361.613 50 364 52.3878 364 55.3333" stroke="white" stroke-width="4" stroke-linecap="round" stroke-linejoin="round"/>
<path d="M324 60.6666H364V84.6666C364 87.6122 361.613 90 358.667 90H324C321.055 90 318.667 87.6122 318.667 84.6666V55.3333C318.667 58.2788 321.055 60.6666 324 60.6666Z" fill="white"/>
<path d="M364 60.6666H324C321.055 60.6666 318.667 58.2788 318.667 55.3333V84.6666C318.667 87.6122 321.055 90 324 90H358.667C361.613 90 364 87.6122 364 84.6666V55.3333" stroke="white" stroke-width="4" stroke-linecap="round" stroke-linejoin="round"/>
<path d="M364 79.3334H356C353.055 79.3334 350.667 76.9455 350.667 74V74C350.667 71.0545 353.055 68.6667 356 68.6667H364" stroke="#FFA112" stroke-width="4" stroke-linecap="square" stroke-linejoin="round"/>
<circle cx="274.5" cy="70.5" r="33.5" fill="white" stroke="url(#paint4_linear_302_7287)" stroke-width="6"/>
<defs>
<filter id="filter0_d_302_7287" x="0" y="0" width="152" height="152" filterUnits="userSpaceOnUse" color-interpolation-filters="sRGB">
<feFlood flood-opacity="0" result="BackgroundImageFix"/>
<feColorMatrix in="SourceAlpha" type="matrix" values="0 0 0 0 0 0 0 0 0 0 0 0 0 0 0 0 0 0 127 0" result="hardAlpha"/>
<feOffset dy="6"/>
<feGaussianBlur stdDeviation="14"/>
<feComposite in2="hardAlpha" operator="out"/>
<feColorMatrix type="matrix" values="0 0 0 0 0 0 0 0 0 0 0 0 0 0 0 0 0 0 0.05 0"/>
<feBlend mode="normal" in2="BackgroundImageFix" result="effect1_dropShadow_302_7287"/>
<feBlend mode="normal" in="SourceGraphic" in2="effect1_dropShadow_302_7287" result="shape"/>
</filter>
<linearGradient id="paint0_linear_302_7287" x1="292" y1="63" x2="155.247" y2="63" gradientUnits="userSpaceOnUse">
<stop stop-color="#7B2FD0"/>
<stop offset="1" stop-color="#414DED" stop-opacity="0"/>
</linearGradient>
<linearGradient id="paint1_linear_302_7287" x1="282" y1="67.4262" x2="148.623" y2="67.4262" gradientUnits="userSpaceOnUse">
<stop stop-color="#7B2FD0"/>
<stop offset="1" stop-color="#414DED" stop-opacity="0"/>
</linearGradient>
<linearGradient id="paint2_linear_302_7287" x1="100.452" y1="15.4482" x2="100.452" y2="111.448" gradientUnits="userSpaceOnUse">
<stop stop-color="#A367EF"/>
<stop offset="1" stop-color="#811FFF"/>
</linearGradient>
<linearGradient id="paint3_linear_302_7287" x1="340" y1="22" x2="340" y2="118" gradientUnits="userSpaceOnUse">
<stop stop-color="#FFC111"/>
<stop offset="1" stop-color="#FF8311"/>
</linearGradient>
<linearGradient id="paint4_linear_302_7287" x1="290.037" y1="35.8369" x2="290.037" y2="96.8369" gradientUnits="userSpaceOnUse">
<stop stop-color="#A367EF"/>
<stop offset="1" stop-color="#811FFF"/>
</linearGradient>
</defs>
</svg>
